<?xml version="1.0" encoding="UTF-8" standalone="no"?>
<!DOCTYPE svg PUBLIC "-//W3C//DTD SVG 1.1//EN" "http://www.w3.org/Graphics/SVG/1.1/DTD/svg11.dtd">
<svg xmlns="http://www.w3.org/2000/svg" version="1.1" viewBox="0.00 0.00 1024.00 1024.00">
<g stroke-width="2.00" fill="none" stroke-linecap="butt">
<path stroke="#100c22" stroke-opacity="0.639" vector-effect="non-scaling-stroke" d="
  M 817.62 582.51
  Q 812.39 588.90 804.70 594.63
  A 0.30 0.30 0.0 0 0 804.95 595.16
  Q 806.47 594.78 807.55 595.35
  Q 809.13 596.18 810.04 596.40
  Q 814.53 597.50 818.89 599.18"
/>
<path stroke="#100c22" stroke-opacity="0.639" vector-effect="non-scaling-stroke" d="
  M 392.60 682.83
  Q 391.88 680.79 390.65 679.78
  A 1.85 1.81 -81.7 0 1 390.08 679.00
  C 388.58 675.21 386.59 674.52 382.54 672.71
  Q 366.16 665.36 352.22 658.56
  C 349.34 657.15 345.76 655.78 341.89 653.90
  Q 334.97 650.56 318.55 643.43
  Q 316.31 642.46 313.94 643.19
  Q 308.84 644.75 302.57 646.51"
/>
<path stroke="#868586" vector-effect="non-scaling-stroke" d="
  M 414.58 255.47
  Q 408.64 257.28 409.08 260.05"
/>
<path stroke="#295e37" vector-effect="non-scaling-stroke" d="
  M 409.08 260.05
  L 408.93 309.47
  A 1.52 1.51 -79.7 0 0 409.90 310.89
  C 413.83 312.40 417.70 314.64 419.51 318.53
  Q 421.63 323.09 442.02 371.53
  A 0.46 0.46 0.0 0 0 442.62 371.77
  L 495.79 350.02"
/>
<path stroke="#84101f" vector-effect="non-scaling-stroke" d="
  M 495.79 350.02
  C 499.10 349.08 501.92 347.62 505.43 348.10
  Q 509.61 348.67 513.88 349.64
  Q 532.86 353.95 554.95 359.61
  C 557.05 360.15 558.25 360.75 559.30 358.82
  Q 564.24 349.78 571.22 342.30
  C 575.23 338.01 580.42 334.24 584.91 330.80
  A 1.97 1.96 71.7 0 0 585.68 329.26
  L 585.86 250.89"
/>
<path stroke="#868586" vector-effect="non-scaling-stroke" d="
  M 585.86 250.89
  Q 586.15 249.48 585.14 248.88
  Q 582.03 247.02 580.18 246.78"
/>
<path stroke="#876f1b" vector-effect="non-scaling-stroke" d="
  M 580.18 246.78
  Q 541.85 233.86 505.20 222.04
  Q 502.23 221.08 500.14 221.89
  Q 457.74 238.47 414.58 255.47"
/>
<path stroke="#fee880" vector-effect="non-scaling-stroke" d="
  M 580.18 246.78
  Q 550.69 259.02 522.44 270.68
  Q 510.80 275.48 500.35 279.45
  C 498.36 280.21 496.76 280.97 494.68 280.34
  Q 442.26 264.64 429.31 260.95
  Q 420.57 258.46 414.58 255.47"
/>
<path stroke="#fb8985" vector-effect="non-scaling-stroke" d="
  M 585.86 250.89
  L 495.12 289.29"
/>
<path stroke="#a0d79c" vector-effect="non-scaling-stroke" d="
  M 495.12 289.29
  L 409.08 260.05"
/>
<path stroke="#9e6236" vector-effect="non-scaling-stroke" d="
  M 495.79 350.02
  L 495.12 289.29"
/>
<path stroke="#868586" vector-effect="non-scaling-stroke" d="
  M 219.22 317.42
  Q 215.67 318.69 212.03 320.02
  Q 210.63 320.53 209.98 321.78"
/>
<path stroke="#295e37" vector-effect="non-scaling-stroke" d="
  M 209.98 321.78
  Q 209.53 322.50 209.53 322.81
  Q 209.59 459.28 209.61 596.00
  A 1.09 1.08 -79.3 0 0 210.29 597.01
  L 295.89 631.72"
/>
<path stroke="#102663" vector-effect="non-scaling-stroke" d="
  M 295.89 631.72
  L 342.47 612.91
  A 0.72 0.72 0.0 0 0 342.88 612.00
  L 296.30 475.71
  A 0.47 0.47 0.0 0 0 295.61 475.46
  Q 295.37 475.60 295.00 475.54"
/>
<path stroke="#295e37" vector-effect="non-scaling-stroke" d="
  M 295.00 475.54
  L 294.81 468.98
  A 0.49 0.49 0.0 0 1 295.76 468.79
  Q 296.84 471.67 297.43 472.81
  C 326.50 529.65 367.32 604.46 401.51 669.51
  Q 402.43 671.27 404.39 672.09
  Q 445.89 689.50 497.97 710.80
  Q 499.82 711.55 500.67 711.32"
/>
<path stroke="#84101f" vector-effect="non-scaling-stroke" d="
  M 500.67 711.32
  Q 506.38 709.69 511.08 707.63
  Q 546.82 691.99 560.15 686.22
  C 579.29 677.94 591.59 672.65 604.48 662.71
  Q 617.33 652.80 627.79 638.76
  C 643.19 618.08 649.17 592.24 649.83 566.75
  C 650.63 535.20 650.30 501.75 650.26 459.25
  Q 650.24 444.75 649.09 435.23
  Q 647.49 422.13 641.23 409.99
  Q 634.06 396.10 621.75 388.43"
/>
<path stroke="#868586" vector-effect="non-scaling-stroke" d="
  M 621.75 388.43
  Q 612.15 381.15 600.86 379.56"
/>
<path stroke="#84101f" vector-effect="non-scaling-stroke" d="
  M 600.86 379.56
  Q 599.35 379.15 597.46 378.68
  Q 542.99 365.15 508.79 357.38
  C 505.44 356.62 502.35 358.85 499.51 359.98
  Q 459.26 375.97 425.51 389.18
  Q 425.49 389.19 420.64 390.93
  Q 418.29 391.78 415.88 392.92"
/>
<path stroke="#868586" vector-effect="non-scaling-stroke" d="
  M 415.88 392.92
  L 408.91 395.28
  A 0.80 0.80 0.0 0 0 408.37 396.01
  L 408.35 397.10"
/>
<path stroke="#295e37" vector-effect="non-scaling-stroke" d="
  M 408.35 397.10
  Q 408.42 468.30 408.40 539.66
  C 408.40 542.24 408.76 544.21 408.36 546.34
  A 0.48 0.44 -69.7 0 1 407.68 546.69
  Q 407.47 546.57 407.50 546.13"
/>
<path stroke="#868586" vector-effect="non-scaling-stroke" d="
  M 407.50 546.13
  Q 407.14 542.50 405.63 538.87
  Q 401.56 529.10 397.42 519.46"
/>
<path stroke="#102663" vector-effect="non-scaling-stroke" d="
  M 397.42 519.46
  Q 398.76 518.20 398.76 515.50
  Q 398.89 444.68 398.86 390.42
  A 1.34 1.34 0.0 0 1 399.69 389.18
  L 431.96 375.71
  A 0.85 0.85 0.0 0 0 432.42 374.61
  L 409.44 316.93"
/>
<path stroke="#868586" vector-effect="non-scaling-stroke" d="
  M 409.44 316.93
  Q 409.27 314.90 405.68 314.09
  Q 404.55 313.83 400.49 312.57"
/>
<path stroke="#876f1b" vector-effect="non-scaling-stroke" d="
  M 400.49 312.57
  Q 356.41 297.47 312.01 283.33
  Q 309.74 282.60 308.02 283.27
  Q 263.70 300.42 219.22 317.42"
/>
<path stroke="#fee880" vector-effect="non-scaling-stroke" d="
  M 400.49 312.57
  L 316.66 346.04
  A 2.45 2.42 42.2 0 1 315.07 346.11
  L 219.22 317.42"
/>
<path stroke="#87a0c8" vector-effect="non-scaling-stroke" d="
  M 409.44 316.93
  L 321.54 352.63
  A 0.62 0.62 0.0 0 0 321.21 353.47
  L 397.42 519.46"
/>
<path stroke="#a0d79c" vector-effect="non-scaling-stroke" d="
  M 407.50 546.13
  Q 407.10 547.53 406.55 547.77
  A 0.76 0.76 0.0 0 1 405.59 547.44
  Q 395.36 529.04 386.41 510.12
  Q 353.72 441.01 313.95 355.04
  A 2.96 2.95 86.6 0 0 312.20 353.48
  Q 308.85 352.39 304.43 350.95
  Q 252.27 333.95 215.92 322.25
  Q 213.21 321.38 210.49 322.08
  Q 209.95 322.22 209.98 321.78"
/>
<path stroke="#a0d79c" vector-effect="non-scaling-stroke" d="
  M 408.35 397.10
  Q 415.43 399.19 422.04 401.49
  Q 461.14 415.08 500.81 429.38"
/>
<path stroke="#9e6236" vector-effect="non-scaling-stroke" d="
  M 500.81 429.38
  L 500.67 711.32"
/>
<path stroke="#2a7979" vector-effect="non-scaling-stroke" d="
  M 295.00 475.54
  Q 294.92 552.51 295.05 629.48
  Q 295.05 630.26 295.89 631.72"
/>
<path stroke="#fb8985" vector-effect="non-scaling-stroke" d="
  M 621.75 388.43
  Q 610.15 384.99 600.14 389.15
  Q 550.42 409.77 500.81 429.38"
/>
<path stroke="#fb8985" vector-effect="non-scaling-stroke" d="
  M 600.86 379.56
  Q 552.69 399.01 504.48 418.55
  Q 501.87 419.61 500.19 419.09
  Q 462.44 407.40 424.54 396.23
  Q 420.39 395.01 415.88 392.92"
/>
<path stroke="#868586" vector-effect="non-scaling-stroke" d="
  M 600.97 332.75
  Q 596.25 334.33 592.18 337.46"
/>
<path stroke="#876f1b" vector-effect="non-scaling-stroke" d="
  M 592.18 337.46
  C 583.44 343.25 575.29 352.18 571.91 362.76
  A 0.78 0.77 -75.1 0 0 572.48 363.76
  Q 586.64 366.89 604.00 371.53
  Q 626.42 377.53 641.84 395.39"
/>
<path stroke="#875a1b" vector-effect="non-scaling-stroke" d="
  M 641.84 395.39
  Q 654.94 413.04 657.37 435.57
  C 657.82 439.74 658.40 445.88 658.41 450.82
  Q 658.49 496.58 658.39 536.50
  C 658.32 564.89 658.21 587.20 651.12 611.73
  A 1.50 1.49 18.5 0 0 652.03 613.55
  L 685.79 626.23"
/>
<path stroke="#876f1b" vector-effect="non-scaling-stroke" d="
  M 685.79 626.23
  Q 692.25 629.36 698.97 628.93
  Q 703.49 628.64 711.46 625.14
  Q 737.51 613.70 777.68 596.41
  Q 797.95 587.69 811.27 569.12
  C 819.24 558.00 823.92 543.08 825.37 529.22
  Q 826.87 515.01 826.87 506.50
  Q 826.93 431.43 826.87 361.68
  C 826.85 347.82 824.28 334.86 814.75 324.37"
/>
<path stroke="#868586" vector-effect="non-scaling-stroke" d="
  M 814.75 324.37
  Q 807.02 315.36 794.50 312.49"
/>
<path stroke="#876f1b" vector-effect="non-scaling-stroke" d="
  M 794.50 312.49
  Q 755.64 302.96 716.53 294.42
  Q 704.43 291.78 692.99 296.28
  Q 649.56 313.34 606.15 330.41
  Q 603.59 331.42 600.97 332.75"
/>
<path stroke="#fee880" vector-effect="non-scaling-stroke" d="
  M 794.50 312.49
  Q 792.58 314.17 788.30 315.77
  Q 757.40 327.36 699.22 351.03
  Q 695.30 352.62 692.05 354.25
  A 3.86 3.86 0.0 0 1 689.42 354.55
  L 600.97 332.75"
/>
<path stroke="#fee880" vector-effect="non-scaling-stroke" d="
  M 814.75 324.37
  L 814.60 324.70
  A 0.55 0.55 0.0 0 1 813.69 324.83
  Q 810.06 320.81 804.30 319.75
  C 800.04 318.97 793.12 320.72 789.55 322.28
  Q 761.40 334.66 726.69 348.68
  Q 719.93 351.41 709.95 355.67
  C 698.17 360.69 688.42 370.04 681.82 380.77
  C 674.38 392.86 671.86 408.85 671.85 423.49
  Q 671.76 506.40 671.84 573.13
  C 671.85 580.61 672.62 587.39 673.84 594.49
  Q 675.82 606.04 680.14 618.19"
/>
<path stroke="#e7b67f" vector-effect="non-scaling-stroke" d="
  M 680.14 618.19
  Q 669.86 602.49 669.08 584.49
  C 668.42 569.19 668.78 549.22 668.79 536.62
  Q 668.82 469.56 668.65 403.05"
/>
<path stroke="#fed480" vector-effect="non-scaling-stroke" d="
  M 668.65 403.05
  Q 670.46 379.23 686.97 363.08
  A 0.54 0.54 0.0 0 0 686.58 362.16
  Q 685.60 362.18 684.26 361.83
  Q 683.53 361.63 599.19 338.59
  Q 595.50 337.58 592.70 338.24"
/>
<path stroke="#fee880" vector-effect="non-scaling-stroke" d="
  M 592.70 338.24
  L 592.18 337.46"
/>
<path stroke="#ffbe15" vector-effect="non-scaling-stroke" d="
  M 592.70 338.24
  C 589.53 341.47 585.73 344.44 582.89 347.37
  Q 576.86 353.63 573.87 361.41
  A 1.10 1.10 0.0 0 0 574.67 362.88
  Q 587.68 365.59 602.57 369.50
  C 605.79 370.34 608.74 371.59 612.42 372.81
  C 619.12 375.03 625.49 379.32 631.44 383.57
  Q 636.10 386.89 640.09 391.79
  A 3.96 3.64 -0.1 0 0 640.94 392.57
  Q 643.38 394.20 641.84 395.39"
/>
<path stroke="#e88c14" vector-effect="non-scaling-stroke" d="
  M 668.65 403.05
  Q 656.38 400.51 644.41 396.15
  A 0.31 0.31 0.0 0 0 644.05 396.63
  Q 648.38 402.60 651.67 409.55
  Q 656.07 418.83 658.51 435.42
  C 658.73 436.90 658.61 439.82 659.02 441.75
  C 659.55 444.24 659.60 447.35 659.60 449.00
  Q 659.64 497.98 659.65 549.63
  Q 659.65 559.53 659.11 567.84
  Q 658.24 581.27 657.65 586.00
  Q 656.10 598.61 652.63 611.00
  A 1.71 1.71 0.0 0 0 653.67 613.06
  Q 668.19 618.50 675.86 621.45
  Q 678.32 622.40 680.83 622.66
  A 2.48 2.28 57.7 0 1 681.53 622.85
  L 684.64 624.23"
/>
<path stroke="#ffbe15" vector-effect="non-scaling-stroke" d="
  M 685.79 626.23
  L 684.64 624.23"
/>
<path stroke="#e8a014" vector-effect="non-scaling-stroke" d="
  M 684.64 624.23
  L 680.14 618.19"
/>
<path stroke="#888a5d" vector-effect="non-scaling-stroke" d="
  M 724.96 521.88
  Q 724.63 537.25 725.07 542.98
  Q 725.48 548.39 730.36 551.57"
/>
<path stroke="#fee880" vector-effect="non-scaling-stroke" d="
  M 730.36 551.57
  Q 730.23 552.26 730.51 552.49
  Q 735.95 557.05 742.64 554.39
  Q 754.61 549.62 765.51 542.78
  Q 777.28 535.39 777.83 521.91"
/>
<path stroke="#888a5d" vector-effect="non-scaling-stroke" d="
  M 777.83 521.91
  Q 778.61 515.82 778.64 510.00
  Q 778.88 466.38 778.80 422.75
  Q 778.79 417.18 778.35 410.62"
/>
<path stroke="#876f1b" vector-effect="non-scaling-stroke" d="
  M 778.35 410.62
  Q 779.30 403.74 779.06 395.75
  C 778.91 390.85 776.73 385.80 771.57 384.98
  Q 769.21 384.60 764.22 387.07
  Q 760.19 389.06 740.65 397.86
  C 730.72 402.34 724.88 409.48 724.86 420.50
  Q 724.76 470.99 724.96 521.88"
/>
<path stroke="#102663" vector-effect="non-scaling-stroke" d="
  M 778.35 410.62
  Q 775.14 416.32 773.16 422.20
  Q 771.18 428.10 771.15 428.19
  Q 753.30 476.99 740.62 512.04
  A 2.42 2.18 -20.3 0 1 740.39 512.48
  Q 738.66 514.99 735.89 516.40
  Q 730.61 519.09 724.96 521.88"
/>
<path stroke="#87a0c8" vector-effect="non-scaling-stroke" d="
  M 777.83 521.91
  Q 775.29 527.73 771.54 532.04
  Q 765.62 538.85 757.02 542.77
  Q 747.65 547.05 738.07 550.83
  Q 733.47 552.64 730.36 551.57"
/>
<path stroke="#842b62" vector-effect="non-scaling-stroke" d="
  M 552.38 578.98
  L 552.27 628.35"
/>
<path stroke="#fc5f1a" vector-effect="non-scaling-stroke" d="
  M 552.27 628.35
  L 552.19 632.27
  A 0.39 0.38 -12.1 0 0 552.74 632.62
  Q 561.84 628.28 567.46 625.61
  Q 578.32 620.46 581.85 617.97
  C 589.58 612.51 596.08 603.03 596.49 592.91"
/>
<path stroke="#842b62" vector-effect="non-scaling-stroke" d="
  M 596.49 592.91
  Q 596.99 587.99 597.04 574.00
  Q 597.23 520.78 596.86 467.29"
/>
<path stroke="#84101f" vector-effect="non-scaling-stroke" d="
  M 596.86 467.29
  Q 595.98 460.19 591.98 457.01
  Q 587.53 453.48 582.72 455.56
  Q 567.88 461.94 553.23 468.01
  A 1.44 1.43 -11.5 0 0 552.35 469.33
  L 552.38 578.98"
/>
<path stroke="#102663" vector-effect="non-scaling-stroke" d="
  M 596.86 467.29
  Q 594.59 469.80 593.11 473.66
  Q 574.24 523.13 555.40 572.61
  Q 554.50 574.97 552.38 578.98"
/>
<path stroke="#88755d" vector-effect="non-scaling-stroke" d="
  M 596.49 592.91
  C 594.47 601.32 590.26 607.78 583.25 612.57
  Q 579.24 615.31 577.01 616.28
  Q 564.81 621.65 552.27 628.35"
/>
</g>
<path fill="#0f0b20" d="
  M 817.62 582.51
  Q 812.39 588.90 804.70 594.63
  A 0.30 0.30 0.0 0 0 804.95 595.16
  Q 806.47 594.78 807.55 595.35
  Q 809.13 596.18 810.04 596.40
  Q 814.53 597.50 818.89 599.18
  C 818.44 600.78 816.23 600.88 815.23 601.31
  Q 808.33 604.32 801.41 607.18
  Q 753.76 626.83 704.23 646.98
  Q 700.34 648.57 696.02 647.95
  Q 688.40 646.86 681.45 647.21
  A 0.18 0.18 0.0 0 0 681.42 647.57
  C 685.49 648.27 688.97 648.57 692.37 650.36
  A 0.90 0.90 0.0 0 1 692.47 651.90
  Q 690.87 653.03 688.93 653.63
  Q 686.68 654.34 686.11 654.60
  Q 681.45 656.75 665.40 663.38
  Q 635.40 675.77 564.47 704.95
  Q 548.62 711.47 505.73 728.88
  Q 503.80 729.66 500.82 729.17
  Q 499.04 728.88 496.09 727.66
  Q 475.39 719.03 410.77 691.96
  Q 405.63 689.81 400.79 687.93
  Q 396.17 686.13 392.60 682.83
  Q 391.88 680.79 390.65 679.78
  A 1.85 1.81 -81.7 0 1 390.08 679.00
  C 388.58 675.21 386.59 674.52 382.54 672.71
  Q 366.16 665.36 352.22 658.56
  C 349.34 657.15 345.76 655.78 341.89 653.90
  Q 334.97 650.56 318.55 643.43
  Q 316.31 642.46 313.94 643.19
  Q 308.84 644.75 302.57 646.51
  Q 298.62 647.33 296.35 646.69
  Q 290.80 645.14 280.09 640.73
  Q 267.71 635.62 267.63 635.59
  Q 234.79 622.34 204.53 609.94
  A 2.39 2.29 72.7 0 1 204.13 609.72
  L 201.63 607.95
  A 2.11 2.01 2.0 0 1 201.14 607.45
  Q 198.71 603.90 198.71 598.75
  Q 198.69 498.20 198.72 332.50
  Q 198.72 326.32 198.89 321.15
  A 3.28 3.12 -37.8 0 1 199.01 320.36
  Q 200.34 315.52 204.20 314.20
  Q 209.41 312.41 227.91 305.44
  Q 273.90 288.13 305.85 275.58
  C 308.75 274.44 310.33 274.48 313.47 275.50
  Q 342.10 284.79 365.14 292.62
  Q 384.60 299.24 394.89 302.63
  Q 396.66 303.21 398.44 303.36
  A 0.47 0.47 0.0 0 0 398.96 302.89
  L 398.96 256.70
  A 1.32 1.28 -28.9 0 1 399.18 255.98
  Q 401.37 252.56 402.54 252.04
  Q 402.61 252.01 443.21 235.93
  Q 470.22 225.24 499.00 214.27
  Q 501.09 213.48 502.83 213.63
  A 4.16 3.87 -33.0 0 1 503.63 213.77
  Q 507.09 214.69 509.33 215.44
  Q 539.75 225.63 568.74 235.03
  Q 572.63 236.29 579.03 238.53
  Q 580.68 239.10 585.30 240.52
  C 590.77 242.19 594.80 243.76 594.74 249.95
  Q 594.56 268.56 594.45 325.49
  A 0.55 0.55 0.0 0 0 595.21 326.00
  Q 638.35 308.79 687.13 289.86
  Q 692.26 287.87 694.67 287.13
  Q 699.57 285.63 702.49 285.57
  C 709.71 285.41 716.93 286.54 724.17 288.16
  Q 764.30 297.12 796.73 304.80
  C 804.44 306.63 813.56 310.41 819.47 316.02
  Q 827.18 323.35 830.84 331.58
  Q 833.87 338.39 835.50 348.17
  Q 837.00 357.15 836.99 368.25
  Q 836.90 436.30 837.00 509.31
  Q 837.02 524.99 836.24 532.19
  Q 835.01 543.52 831.86 554.63
  Q 827.52 569.94 817.62 582.51
  Z
  M 414.58 255.47
  Q 408.64 257.28 409.08 260.05
  L 408.93 309.47
  A 1.52 1.51 -79.7 0 0 409.90 310.89
  C 413.83 312.40 417.70 314.64 419.51 318.53
  Q 421.63 323.09 442.02 371.53
  A 0.46 0.46 0.0 0 0 442.62 371.77
  L 495.79 350.02
  C 499.10 349.08 501.92 347.62 505.43 348.10
  Q 509.61 348.67 513.88 349.64
  Q 532.86 353.95 554.95 359.61
  C 557.05 360.15 558.25 360.75 559.30 358.82
  Q 564.24 349.78 571.22 342.30
  C 575.23 338.01 580.42 334.24 584.91 330.80
  A 1.97 1.96 71.7 0 0 585.68 329.26
  L 585.86 250.89
  Q 586.15 249.48 585.14 248.88
  Q 582.03 247.02 580.18 246.78
  Q 541.85 233.86 505.20 222.04
  Q 502.23 221.08 500.14 221.89
  Q 457.74 238.47 414.58 255.47
  Z
  M 219.22 317.42
  Q 215.67 318.69 212.03 320.02
  Q 210.63 320.53 209.98 321.78
  Q 209.53 322.50 209.53 322.81
  Q 209.59 459.28 209.61 596.00
  A 1.09 1.08 -79.3 0 0 210.29 597.01
  L 295.89 631.72
  L 342.47 612.91
  A 0.72 0.72 0.0 0 0 342.88 612.00
  L 296.30 475.71
  A 0.47 0.47 0.0 0 0 295.61 475.46
  Q 295.37 475.60 295.00 475.54
  L 294.81 468.98
  A 0.49 0.49 0.0 0 1 295.76 468.79
  Q 296.84 471.67 297.43 472.81
  C 326.50 529.65 367.32 604.46 401.51 669.51
  Q 402.43 671.27 404.39 672.09
  Q 445.89 689.50 497.97 710.80
  Q 499.82 711.55 500.67 711.32
  Q 506.38 709.69 511.08 707.63
  Q 546.82 691.99 560.15 686.22
  C 579.29 677.94 591.59 672.65 604.48 662.71
  Q 617.33 652.80 627.79 638.76
  C 643.19 618.08 649.17 592.24 649.83 566.75
  C 650.63 535.20 650.30 501.75 650.26 459.25
  Q 650.24 444.75 649.09 435.23
  Q 647.49 422.13 641.23 409.99
  Q 634.06 396.10 621.75 388.43
  Q 612.15 381.15 600.86 379.56
  Q 599.35 379.15 597.46 378.68
  Q 542.99 365.15 508.79 357.38
  C 505.44 356.62 502.35 358.85 499.51 359.98
  Q 459.26 375.97 425.51 389.18
  Q 425.49 389.19 420.64 390.93
  Q 418.29 391.78 415.88 392.92
  L 408.91 395.28
  A 0.80 0.80 0.0 0 0 408.37 396.01
  L 408.35 397.10
  Q 408.42 468.30 408.40 539.66
  C 408.40 542.24 408.76 544.21 408.36 546.34
  A 0.48 0.44 -69.7 0 1 407.68 546.69
  Q 407.47 546.57 407.50 546.13
  Q 407.14 542.50 405.63 538.87
  Q 401.56 529.10 397.42 519.46
  Q 398.76 518.20 398.76 515.50
  Q 398.89 444.68 398.86 390.42
  A 1.34 1.34 0.0 0 1 399.69 389.18
  L 431.96 375.71
  A 0.85 0.85 0.0 0 0 432.42 374.61
  L 409.44 316.93
  Q 409.27 314.90 405.68 314.09
  Q 404.55 313.83 400.49 312.57
  Q 356.41 297.47 312.01 283.33
  Q 309.74 282.60 308.02 283.27
  Q 263.70 300.42 219.22 317.42
  Z
  M 600.97 332.75
  Q 596.25 334.33 592.18 337.46
  C 583.44 343.25 575.29 352.18 571.91 362.76
  A 0.78 0.77 -75.1 0 0 572.48 363.76
  Q 586.64 366.89 604.00 371.53
  Q 626.42 377.53 641.84 395.39
  Q 654.94 413.04 657.37 435.57
  C 657.82 439.74 658.40 445.88 658.41 450.82
  Q 658.49 496.58 658.39 536.50
  C 658.32 564.89 658.21 587.20 651.12 611.73
  A 1.50 1.49 18.5 0 0 652.03 613.55
  L 685.79 626.23
  Q 692.25 629.36 698.97 628.93
  Q 703.49 628.64 711.46 625.14
  Q 737.51 613.70 777.68 596.41
  Q 797.95 587.69 811.27 569.12
  C 819.24 558.00 823.92 543.08 825.37 529.22
  Q 826.87 515.01 826.87 506.50
  Q 826.93 431.43 826.87 361.68
  C 826.85 347.82 824.28 334.86 814.75 324.37
  Q 807.02 315.36 794.50 312.49
  Q 755.64 302.96 716.53 294.42
  Q 704.43 291.78 692.99 296.28
  Q 649.56 313.34 606.15 330.41
  Q 603.59 331.42 600.97 332.75
  Z"
/>
<path fill="#ffd215" d="
  M 580.18 246.78
  Q 550.69 259.02 522.44 270.68
  Q 510.80 275.48 500.35 279.45
  C 498.36 280.21 496.76 280.97 494.68 280.34
  Q 442.26 264.64 429.31 260.95
  Q 420.57 258.46 414.58 255.47
  Q 457.74 238.47 500.14 221.89
  Q 502.23 221.08 505.20 222.04
  Q 541.85 233.86 580.18 246.78
  Z"
/>
<path fill="#fdfeeb" d="
  M 580.18 246.78
  Q 582.03 247.02 585.14 248.88
  Q 586.15 249.48 585.86 250.89
  L 495.12 289.29
  L 409.08 260.05
  Q 408.64 257.28 414.58 255.47
  Q 420.57 258.46 429.31 260.95
  Q 442.26 264.64 494.68 280.34
  C 496.76 280.97 498.36 280.21 500.35 279.45
  Q 510.80 275.48 522.44 270.68
  Q 550.69 259.02 580.18 246.78
  Z"
/>
<path fill="#f8141e" d="
  M 585.86 250.89
  L 585.68 329.26
  A 1.97 1.96 71.7 0 1 584.91 330.80
  C 580.42 334.24 575.23 338.01 571.22 342.30
  Q 564.24 349.78 559.30 358.82
  C 558.25 360.75 557.05 360.15 554.95 359.61
  Q 532.86 353.95 513.88 349.64
  Q 509.61 348.67 505.43 348.10
  C 501.92 347.62 499.10 349.08 495.79 350.02
  L 495.12 289.29
  L 585.86 250.89
  Z"
/>
<path fill="#43b04d" d="
  M 495.12 289.29
  L 495.79 350.02
  L 442.62 371.77
  A 0.46 0.46 0.0 0 1 442.02 371.53
  Q 421.63 323.09 419.51 318.53
  C 417.70 314.64 413.83 312.40 409.90 310.89
  A 1.52 1.51 -79.7 0 1 408.93 309.47
  L 409.08 260.05
  L 495.12 289.29
  Z"
/>
<path fill="#ffd215" d="
  M 400.49 312.57
  L 316.66 346.04
  A 2.45 2.42 42.2 0 1 315.07 346.11
  L 219.22 317.42
  Q 263.70 300.42 308.02 283.27
  Q 309.74 282.60 312.01 283.33
  Q 356.41 297.47 400.49 312.57
  Z"
/>
<path fill="#ffd215" d="
  M 794.50 312.49
  Q 792.58 314.17 788.30 315.77
  Q 757.40 327.36 699.22 351.03
  Q 695.30 352.62 692.05 354.25
  A 3.86 3.86 0.0 0 1 689.42 354.55
  L 600.97 332.75
  Q 603.59 331.42 606.15 330.41
  Q 649.56 313.34 692.99 296.28
  Q 704.43 291.78 716.53 294.42
  Q 755.64 302.96 794.50 312.49
  Z"
/>
<path fill="#fdfeeb" d="
  M 400.49 312.57
  Q 404.55 313.83 405.68 314.09
  Q 409.27 314.90 409.44 316.93
  L 321.54 352.63
  A 0.62 0.62 0.0 0 0 321.21 353.47
  L 397.42 519.46
  Q 401.56 529.10 405.63 538.87
  Q 407.14 542.50 407.50 546.13
  Q 407.10 547.53 406.55 547.77
  A 0.76 0.76 0.0 0 1 405.59 547.44
  Q 395.36 529.04 386.41 510.12
  Q 353.72 441.01 313.95 355.04
  A 2.96 2.95 86.6 0 0 312.20 353.48
  Q 308.85 352.39 304.43 350.95
  Q 252.27 333.95 215.92 322.25
  Q 213.21 321.38 210.49 322.08
  Q 209.95 322.22 209.98 321.78
  Q 210.63 320.53 212.03 320.02
  Q 215.67 318.69 219.22 317.42
  L 315.07 346.11
  A 2.45 2.42 42.2 0 0 316.66 346.04
  L 400.49 312.57
  Z"
/>
<path fill="#fdfeeb" d="
  M 794.50 312.49
  Q 807.02 315.36 814.75 324.37
  L 814.60 324.70
  A 0.55 0.55 0.0 0 1 813.69 324.83
  Q 810.06 320.81 804.30 319.75
  C 800.04 318.97 793.12 320.72 789.55 322.28
  Q 761.40 334.66 726.69 348.68
  Q 719.93 351.41 709.95 355.67
  C 698.17 360.69 688.42 370.04 681.82 380.77
  C 674.38 392.86 671.86 408.85 671.85 423.49
  Q 671.76 506.40 671.84 573.13
  C 671.85 580.61 672.62 587.39 673.84 594.49
  Q 675.82 606.04 680.14 618.19
  Q 669.86 602.49 669.08 584.49
  C 668.42 569.19 668.78 549.22 668.79 536.62
  Q 668.82 469.56 668.65 403.05
  Q 670.46 379.23 686.97 363.08
  A 0.54 0.54 0.0 0 0 686.58 362.16
  Q 685.60 362.18 684.26 361.83
  Q 683.53 361.63 599.19 338.59
  Q 595.50 337.58 592.70 338.24
  L 592.18 337.46
  Q 596.25 334.33 600.97 332.75
  L 689.42 354.55
  A 3.86 3.86 0.0 0 0 692.05 354.25
  Q 695.30 352.62 699.22 351.03
  Q 757.40 327.36 788.30 315.77
  Q 792.58 314.17 794.50 312.49
  Z"
/>
<path fill="#1041a5" d="
  M 409.44 316.93
  L 432.42 374.61
  A 0.85 0.85 0.0 0 1 431.96 375.71
  L 399.69 389.18
  A 1.34 1.34 0.0 0 0 398.86 390.42
  Q 398.89 444.68 398.76 515.50
  Q 398.76 518.20 397.42 519.46
  L 321.21 353.47
  A 0.62 0.62 0.0 0 1 321.54 352.63
  L 409.44 316.93
  Z"
/>
<path fill="#ffd215" d="
  M 814.75 324.37
  C 824.28 334.86 826.85 347.82 826.87 361.68
  Q 826.93 431.43 826.87 506.50
  Q 826.87 515.01 825.37 529.22
  C 823.92 543.08 819.24 558.00 811.27 569.12
  Q 797.95 587.69 777.68 596.41
  Q 737.51 613.70 711.46 625.14
  Q 703.49 628.64 698.97 628.93
  Q 692.25 629.36 685.79 626.23
  L 684.64 624.23
  L 680.14 618.19
  Q 675.82 606.04 673.84 594.49
  C 672.62 587.39 671.85 580.61 671.84 573.13
  Q 671.76 506.40 671.85 423.49
  C 671.86 408.85 674.38 392.86 681.82 380.77
  C 688.42 370.04 698.17 360.69 709.95 355.67
  Q 719.93 351.41 726.69 348.68
  Q 761.40 334.66 789.55 322.28
  C 793.12 320.72 800.04 318.97 804.30 319.75
  Q 810.06 320.81 813.69 324.83
  A 0.55 0.55 0.0 0 0 814.60 324.70
  L 814.75 324.37
  Z
  M 724.96 521.88
  Q 724.63 537.25 725.07 542.98
  Q 725.48 548.39 730.36 551.57
  Q 730.23 552.26 730.51 552.49
  Q 735.95 557.05 742.64 554.39
  Q 754.61 549.62 765.51 542.78
  Q 777.28 535.39 777.83 521.91
  Q 778.61 515.82 778.64 510.00
  Q 778.88 466.38 778.80 422.75
  Q 778.79 417.18 778.35 410.62
  Q 779.30 403.74 779.06 395.75
  C 778.91 390.85 776.73 385.80 771.57 384.98
  Q 769.21 384.60 764.22 387.07
  Q 760.19 389.06 740.65 397.86
  C 730.72 402.34 724.88 409.48 724.86 420.50
  Q 724.76 470.99 724.96 521.88
  Z"
/>
<path fill="#43b04d" d="
  M 209.98 321.78
  Q 209.95 322.22 210.49 322.08
  Q 213.21 321.38 215.92 322.25
  Q 252.27 333.95 304.43 350.95
  Q 308.85 352.39 312.20 353.48
  A 2.96 2.95 86.6 0 1 313.95 355.04
  Q 353.72 441.01 386.41 510.12
  Q 395.36 529.04 405.59 547.44
  A 0.76 0.76 0.0 0 0 406.55 547.77
  Q 407.10 547.53 407.50 546.13
  Q 407.47 546.57 407.68 546.69
  A 0.48 0.44 -69.7 0 0 408.36 546.34
  C 408.76 544.21 408.40 542.24 408.40 539.66
  Q 408.42 468.30 408.35 397.10
  Q 415.43 399.19 422.04 401.49
  Q 461.14 415.08 500.81 429.38
  L 500.67 711.32
  Q 499.82 711.55 497.97 710.80
  Q 445.89 689.50 404.39 672.09
  Q 402.43 671.27 401.51 669.51
  C 367.32 604.46 326.50 529.65 297.43 472.81
  Q 296.84 471.67 295.76 468.79
  A 0.49 0.49 0.0 0 0 294.81 468.98
  L 295.00 475.54
  Q 294.92 552.51 295.05 629.48
  Q 295.05 630.26 295.89 631.72
  L 210.29 597.01
  A 1.09 1.08 -79.3 0 1 209.61 596.00
  Q 209.59 459.28 209.53 322.81
  Q 209.53 322.50 209.98 321.78
  Z"
/>
<path fill="#ffd215" d="
  M 592.18 337.46
  L 592.70 338.24
  C 589.53 341.47 585.73 344.44 582.89 347.37
  Q 576.86 353.63 573.87 361.41
  A 1.10 1.10 0.0 0 0 574.67 362.88
  Q 587.68 365.59 602.57 369.50
  C 605.79 370.34 608.74 371.59 612.42 372.81
  C 619.12 375.03 625.49 379.32 631.44 383.57
  Q 636.10 386.89 640.09 391.79
  A 3.96 3.64 -0.1 0 0 640.94 392.57
  Q 643.38 394.20 641.84 395.39
  Q 626.42 377.53 604.00 371.53
  Q 586.64 366.89 572.48 363.76
  A 0.78 0.77 -75.1 0 1 571.91 362.76
  C 575.29 352.18 583.44 343.25 592.18 337.46
  Z"
/>
<path fill="#ffa915" d="
  M 668.65 403.05
  Q 656.38 400.51 644.41 396.15
  A 0.31 0.31 0.0 0 0 644.05 396.63
  Q 648.38 402.60 651.67 409.55
  Q 656.07 418.83 658.51 435.42
  C 658.73 436.90 658.61 439.82 659.02 441.75
  C 659.55 444.24 659.60 447.35 659.60 449.00
  Q 659.64 497.98 659.65 549.63
  Q 659.65 559.53 659.11 567.84
  Q 658.24 581.27 657.65 586.00
  Q 656.10 598.61 652.63 611.00
  A 1.71 1.71 0.0 0 0 653.67 613.06
  Q 668.19 618.50 675.86 621.45
  Q 678.32 622.40 680.83 622.66
  A 2.48 2.28 57.7 0 1 681.53 622.85
  L 684.64 624.23
  L 685.79 626.23
  L 652.03 613.55
  A 1.50 1.49 18.5 0 1 651.12 611.73
  C 658.21 587.20 658.32 564.89 658.39 536.50
  Q 658.49 496.58 658.41 450.82
  C 658.40 445.88 657.82 439.74 657.37 435.57
  Q 654.94 413.04 641.84 395.39
  Q 643.38 394.20 640.94 392.57
  A 3.96 3.64 -0.1 0 1 640.09 391.79
  Q 636.10 386.89 631.44 383.57
  C 625.49 379.32 619.12 375.03 612.42 372.81
  C 608.74 371.59 605.79 370.34 602.57 369.50
  Q 587.68 365.59 574.67 362.88
  A 1.10 1.10 0.0 0 1 573.87 361.41
  Q 576.86 353.63 582.89 347.37
  C 585.73 344.44 589.53 341.47 592.70 338.24
  Q 595.50 337.58 599.19 338.59
  Q 683.53 361.63 684.26 361.83
  Q 685.60 362.18 686.58 362.16
  A 0.54 0.54 0.0 0 1 686.97 363.08
  Q 670.46 379.23 668.65 403.05
  Z"
/>
<path fill="#f8141e" d="
  M 600.86 379.56
  Q 552.69 399.01 504.48 418.55
  Q 501.87 419.61 500.19 419.09
  Q 462.44 407.40 424.54 396.23
  Q 420.39 395.01 415.88 392.92
  Q 418.29 391.78 420.64 390.93
  Q 425.49 389.19 425.51 389.18
  Q 459.26 375.97 499.51 359.98
  C 502.35 358.85 505.44 356.62 508.79 357.38
  Q 542.99 365.15 597.46 378.68
  Q 599.35 379.15 600.86 379.56
  Z"
/>
<path fill="#fdfeeb" d="
  M 600.86 379.56
  Q 612.15 381.15 621.75 388.43
  Q 610.15 384.99 600.14 389.15
  Q 550.42 409.77 500.81 429.38
  Q 461.14 415.08 422.04 401.49
  Q 415.43 399.19 408.35 397.10
  L 408.37 396.01
  A 0.80 0.80 0.0 0 1 408.91 395.28
  L 415.88 392.92
  Q 420.39 395.01 424.54 396.23
  Q 462.44 407.40 500.19 419.09
  Q 501.87 419.61 504.48 418.55
  Q 552.69 399.01 600.86 379.56
  Z"
/>
<path fill="#0f0b20" d="
  M 778.35 410.62
  Q 775.14 416.32 773.16 422.20
  Q 771.18 428.10 771.15 428.19
  Q 753.30 476.99 740.62 512.04
  A 2.42 2.18 -20.3 0 1 740.39 512.48
  Q 738.66 514.99 735.89 516.40
  Q 730.61 519.09 724.96 521.88
  Q 724.76 470.99 724.86 420.50
  C 724.88 409.48 730.72 402.34 740.65 397.86
  Q 760.19 389.06 764.22 387.07
  Q 769.21 384.60 771.57 384.98
  C 776.73 385.80 778.91 390.85 779.06 395.75
  Q 779.30 403.74 778.35 410.62
  Z"
/>
<path fill="#f8141e" d="
  M 621.75 388.43
  Q 634.06 396.10 641.23 409.99
  Q 647.49 422.13 649.09 435.23
  Q 650.24 444.75 650.26 459.25
  C 650.30 501.75 650.63 535.20 649.83 566.75
  C 649.17 592.24 643.19 618.08 627.79 638.76
  Q 617.33 652.80 604.48 662.71
  C 591.59 672.65 579.29 677.94 560.15 686.22
  Q 546.82 691.99 511.08 707.63
  Q 506.38 709.69 500.67 711.32
  L 500.81 429.38
  Q 550.42 409.77 600.14 389.15
  Q 610.15 384.99 621.75 388.43
  Z
  M 552.38 578.98
  L 552.27 628.35
  L 552.19 632.27
  A 0.39 0.38 -12.1 0 0 552.74 632.62
  Q 561.84 628.28 567.46 625.61
  Q 578.32 620.46 581.85 617.97
  C 589.58 612.51 596.08 603.03 596.49 592.91
  Q 596.99 587.99 597.04 574.00
  Q 597.23 520.78 596.86 467.29
  Q 595.98 460.19 591.98 457.01
  Q 587.53 453.48 582.72 455.56
  Q 567.88 461.94 553.23 468.01
  A 1.44 1.43 -11.5 0 0 552.35 469.33
  L 552.38 578.98
  Z"
/>
<path fill="#d06e13" d="
  M 668.65 403.05
  Q 668.82 469.56 668.79 536.62
  C 668.78 549.22 668.42 569.19 669.08 584.49
  Q 669.86 602.49 680.14 618.19
  L 684.64 624.23
  L 681.53 622.85
  A 2.48 2.28 57.7 0 0 680.83 622.66
  Q 678.32 622.40 675.86 621.45
  Q 668.19 618.50 653.67 613.06
  A 1.71 1.71 0.0 0 1 652.63 611.00
  Q 656.10 598.61 657.65 586.00
  Q 658.24 581.27 659.11 567.84
  Q 659.65 559.53 659.65 549.63
  Q 659.64 497.98 659.60 449.00
  C 659.60 447.35 659.55 444.24 659.02 441.75
  C 658.61 439.82 658.73 436.90 658.51 435.42
  Q 656.07 418.83 651.67 409.55
  Q 648.38 402.60 644.05 396.63
  A 0.31 0.31 0.0 0 1 644.41 396.15
  Q 656.38 400.51 668.65 403.05
  Z"
/>
<path fill="#1041a5" d="
  M 778.35 410.62
  Q 778.79 417.18 778.80 422.75
  Q 778.88 466.38 778.64 510.00
  Q 778.61 515.82 777.83 521.91
  Q 775.29 527.73 771.54 532.04
  Q 765.62 538.85 757.02 542.77
  Q 747.65 547.05 738.07 550.83
  Q 733.47 552.64 730.36 551.57
  Q 725.48 548.39 725.07 542.98
  Q 724.63 537.25 724.96 521.88
  Q 730.61 519.09 735.89 516.40
  Q 738.66 514.99 740.39 512.48
  A 2.42 2.18 -20.3 0 0 740.62 512.04
  Q 753.30 476.99 771.15 428.19
  Q 771.18 428.10 773.16 422.20
  Q 775.14 416.32 778.35 410.62
  Z"
/>
<path fill="#0f0b20" d="
  M 596.86 467.29
  Q 594.59 469.80 593.11 473.66
  Q 574.24 523.13 555.40 572.61
  Q 554.50 574.97 552.38 578.98
  L 552.35 469.33
  A 1.44 1.43 -11.5 0 1 553.23 468.01
  Q 567.88 461.94 582.72 455.56
  Q 587.53 453.48 591.98 457.01
  Q 595.98 460.19 596.86 467.29
  Z"
/>
<path fill="#1041a5" d="
  M 596.86 467.29
  Q 597.23 520.78 597.04 574.00
  Q 596.99 587.99 596.49 592.91
  C 594.47 601.32 590.26 607.78 583.25 612.57
  Q 579.24 615.31 577.01 616.28
  Q 564.81 621.65 552.27 628.35
  L 552.38 578.98
  Q 554.50 574.97 555.40 572.61
  Q 574.24 523.13 593.11 473.66
  Q 594.59 469.80 596.86 467.29
  Z"
/>
<path fill="#1041a5" d="
  M 295.89 631.72
  Q 295.05 630.26 295.05 629.48
  Q 294.92 552.51 295.00 475.54
  Q 295.37 475.60 295.61 475.46
  A 0.47 0.47 0.0 0 1 296.30 475.71
  L 342.88 612.00
  A 0.72 0.72 0.0 0 1 342.47 612.91
  L 295.89 631.72
  Z"
/>
<path fill="#fdfeeb" d="
  M 730.36 551.57
  Q 733.47 552.64 738.07 550.83
  Q 747.65 547.05 757.02 542.77
  Q 765.62 538.85 771.54 532.04
  Q 775.29 527.73 777.83 521.91
  Q 777.28 535.39 765.51 542.78
  Q 754.61 549.62 742.64 554.39
  Q 735.95 557.05 730.51 552.49
  Q 730.23 552.26 730.36 551.57
  Z"
/>
<path fill="#121027" fill-opacity="0.278" d="
  M 817.62 582.51
  Q 822.69 583.43 827.29 585.16
  A 6.62 6.61 60.0 0 0 828.67 585.53
  Q 835.95 586.71 842.86 590.51
  A 0.22 0.21 49.6 0 1 842.83 590.90
  L 822.06 598.77
  A 1.33 1.31 43.9 0 1 821.13 598.78
  Q 818.36 597.80 818.89 599.18
  Q 814.53 597.50 810.04 596.40
  Q 809.13 596.18 807.55 595.35
  Q 806.47 594.78 804.95 595.16
  A 0.30 0.30 0.0 0 1 804.70 594.63
  Q 812.39 588.90 817.62 582.51
  Z"
/>
<path fill="#ffa915" d="
  M 596.49 592.91
  C 596.08 603.03 589.58 612.51 581.85 617.97
  Q 578.32 620.46 567.46 625.61
  Q 561.84 628.28 552.74 632.62
  A 0.39 0.38 -12.1 0 1 552.19 632.27
  L 552.27 628.35
  Q 564.81 621.65 577.01 616.28
  Q 579.24 615.31 583.25 612.57
  C 590.26 607.78 594.47 601.32 596.49 592.91
  Z"
/>
<path fill="#121027" fill-opacity="0.278" d="
  M 392.60 682.83
  Q 388.07 682.63 383.55 680.99
  Q 382.91 680.76 381.64 679.92
  A 1.69 1.65 72.2 0 0 381.30 679.74
  L 369.73 675.14
  A 2.55 2.32 -14.0 0 1 369.21 674.86
  Q 365.63 672.34 361.20 671.39
  A 1.82 1.79 72.9 0 1 360.33 670.92
  Q 359.47 670.10 356.60 669.14
  Q 355.17 668.66 352.70 667.52
  Q 334.84 659.19 317.19 652.13
  Q 317.17 652.12 311.16 649.42
  Q 307.34 647.71 302.57 646.51
  Q 308.84 644.75 313.94 643.19
  Q 316.31 642.46 318.55 643.43
  Q 334.97 650.56 341.89 653.90
  C 345.76 655.78 349.34 657.15 352.22 658.56
  Q 366.16 665.36 382.54 672.71
  C 386.59 674.52 388.58 675.21 390.08 679.00
  A 1.85 1.81 -81.7 0 0 390.65 679.78
  Q 391.88 680.79 392.60 682.83
  Z"
/>
</svg>
